<?xml version="1.0" standalone="no"?>
<!DOCTYPE svg PUBLIC "-//W3C//DTD SVG 1.1//EN" "http://www.w3.org/Graphics/SVG/1.1/DTD/svg11.dtd" >
<svg xmlns="http://www.w3.org/2000/svg">
<metadata></metadata>
<defs>
<font id="function_capsmedium" horiz-adv-x="500" >
<font-face units-per-em="1000" ascent="753" descent="-247" />
<missing-glyph horiz-adv-x="250" />
<glyph unicode="&#xfb01;" horiz-adv-x="555" d="M399 0v473h93v-473h-93zM63 0v473h262v-82h-169v-100h164v-82h-164v-209h-93z" />
<glyph unicode="&#xfb02;" horiz-adv-x="650" d="M399 0v473h93v-391h145v-82h-238zM63 0v473h262v-82h-169v-100h164v-82h-164v-209h-93z" />
<glyph horiz-adv-x="0" />
<glyph horiz-adv-x="333" />
<glyph unicode=" "  horiz-adv-x="250" />
<glyph unicode="&#x09;" horiz-adv-x="250" />
<glyph unicode="&#xa0;" horiz-adv-x="250" />
<glyph unicode="!" horiz-adv-x="293" d="M98 149v518h97v-518h-97zM87 48q0 25 18 42.5t42 17.5q25 0 43 -17.5t18 -42.5t-17.5 -43t-42.5 -18t-43 18t-18 43z" />
<glyph unicode="&#x22;" horiz-adv-x="363" d="M223 399l-18 268h111l-19 -268h-74zM65 399l-18 268h110l-18 -268h-74z" />
<glyph unicode="#" horiz-adv-x="555" d="M96 7l25 198h-99v75h109l16 123h-100v76h109l24 194l75 -10l-22 -184h127l24 194l76 -10l-23 -184h97v-76h-105l-16 -123h96v-76h-106l-25 -207l-76 10l25 197h-128l-26 -207zM208 280h128l15 123h-128z" />
<glyph unicode="$" horiz-adv-x="567" d="M61 186l95 19q16 -54 34 -78q32 -42 92 -42q48 0 79.5 31t31.5 78q0 43 -26.5 69t-106.5 62q-47 21 -66 32.5t-35 26.5q-51 51 -51 122q0 62 38.5 106.5t109.5 63.5v85h75v-85q96 -14 145 -112l-84 -47q-21 38 -43.5 53.5t-55.5 15.5q-37 0 -62.5 -22.5t-25.5 -55.5 q0 -31 20.5 -51t79.5 -47q91 -42 128 -75q59 -53 59 -137q0 -73 -44 -129t-117 -76v-90h-75v87q-86 16 -132 62t-63 134z" />
<glyph unicode="%" horiz-adv-x="810" d="M190 18l382 660l47 -26l-382 -663zM192 360q-65 0 -112 47t-47 112q0 62 48 108.5t112 46.5q66 0 113.5 -46.5t47.5 -110.5q0 -65 -47.5 -111t-114.5 -46zM194 431q35 0 60 25.5t25 60.5t-25 60t-61 25q-34 0 -59.5 -25t-25.5 -59q0 -36 25 -61.5t61 -25.5zM455 153 q0 62 48 108.5t112 46.5q66 0 113.5 -46.5t47.5 -111.5t-47.5 -111t-114.5 -46q-65 0 -112 47t-47 113zM530 152q0 -36 25 -61.5t61 -25.5q35 0 60 25.5t25 60.5t-25 60t-61 25q-34 0 -59.5 -25t-25.5 -59z" />
<glyph unicode="&#x26;" horiz-adv-x="646" d="M53 185q0 71 52 128q15 16 26 24t62 43l1 1q1 1 3 2.5t4 3.5q-66 71 -66 139t44.5 110t115.5 42q69 0 114 -41t45 -104q0 -43 -24.5 -78t-88.5 -84l120 -145q55 62 74 87l66 -68q-22 -31 -79 -92l124 -153h-125l-67 81q-26 -26 -56 -47q-67 -47 -135 -47q-89 0 -149.5 57 t-60.5 141zM283 442q50 38 63 54t13 40q0 26 -18 42.5t-47 16.5q-28 0 -46.5 -16.5t-18.5 -41.5q0 -20 8 -35t41 -54zM150 187q0 -42 33.5 -75.5t75.5 -33.5q58 0 134 76l-131 160q-66 -45 -89 -71.5t-23 -55.5z" />
<glyph unicode="'" horiz-adv-x="205" d="M65 399l-18 268h110l-18 -268h-74z" />
<glyph unicode="(" horiz-adv-x="324" d="M112 -8q-32 142 -32 284q0 141 32 283q21 94 62 178l90 -35q-42 -103 -56 -159q-29 -118 -29 -267q0 -151 29 -267q14 -56 56 -159l-90 -35q-41 84 -62 177z" />
<glyph unicode=")" horiz-adv-x="324" d="M116 9q29 125 29 267t-29 267q-14 56 -56 159l90 35q41 -84 62 -178q32 -142 32 -283q0 -142 -32 -284q-21 -93 -62 -177l-90 35q42 103 56 159z" />
<glyph unicode="*" horiz-adv-x="567" d="M220 402l-70 51l74 90l-113 30l27 82l109 -42l-7 116h87l-7 -116l109 42l27 -82l-113 -30l74 -90l-70 -51l-64 98z" />
<glyph unicode="+" horiz-adv-x="567" d="M243 120v187h-190v80h190v186h80v-186h190v-80h-190v-187h-80z" />
<glyph unicode="," horiz-adv-x="253" d="M9 -129l102 254l87 -34l-123 -247z" />
<glyph unicode="-" horiz-adv-x="193" d="M0 171v85h193v-85h-193z" />
<glyph unicode="." horiz-adv-x="253" d="M67 48q0 25 18 42.5t42 17.5q25 0 43 -17.5t18 -42.5t-17.5 -43t-42.5 -18t-43 18t-18 43z" />
<glyph unicode="/" horiz-adv-x="458" d="M-7 -147l381 884l81 -36l-382 -884z" />
<glyph unicode="0" horiz-adv-x="560" d="M86 82q-53 65 -53 157q0 99 73.5 171t174.5 72t173 -72.5t72 -173.5q0 -102 -72.5 -173.5t-176.5 -71.5q-53 0 -105 24.5t-86 66.5zM124 237q0 -68 44.5 -115t109.5 -47q66 0 111.5 47t45.5 115t-44.5 114.5t-110.5 46.5q-65 0 -110.5 -47t-45.5 -114z" />
<glyph unicode="1" horiz-adv-x="309" d="M143 0v386h-113l53 87h157v-473h-97z" />
<glyph unicode="2" horiz-adv-x="488" d="M12 0l239 185q50 39 71 67.5t21 58.5q0 38 -28.5 62.5t-73.5 24.5q-52 0 -78 -30t-30 -94h-94q4 49 11.5 75.5t24.5 51.5q55 81 168 81q83 0 137 -48.5t54 -121.5q0 -84 -94 -153l-106 -77h221v-82h-443z" />
<glyph unicode="3" horiz-adv-x="485" d="M33 -13h90q7 -43 26 -65q35 -43 97 -43q52 0 85.5 35t33.5 88q0 73 -52 102q-27 15 -89 15v80q48 0 64 4q31 7 49.5 32.5t18.5 60.5q0 45 -30.5 73.5t-78.5 28.5q-56 0 -82 -37q-13 -17 -21 -58h-94q12 67 36 103q50 76 163 76q88 0 143 -51t55 -131q0 -91 -72 -142 q82 -49 82 -159q0 -90 -60 -147t-155 -57q-62 0 -112 27t-75 75q-17 33 -22 90z" />
<glyph unicode="4" horiz-adv-x="519" d="M-13 0l425 523v-441h74v-82h-74v-193h-94v193h-331zM161 82h157v193z" />
<glyph unicode="5" horiz-adv-x="511" d="M74 -17q24 -44 42 -62q40 -42 103 -42q62 0 105 45t43 111q0 64 -42 107t-106 43q-37 0 -64 -14t-54 -48h-33l104 350h276v-87h-203l-35 -118q12 1 27 1q97 0 159 -65t62 -167q0 -105 -70.5 -173.5t-178.5 -68.5q-133 0 -209 125z" />
<glyph unicode="6" horiz-adv-x="515" d="M33 206q0 79 65 168l233 316l70 -52l-162 -220q12 1 32 1q101 0 159 -67q51 -60 51 -140q0 -91 -65 -156t-157 -65q-91 0 -158.5 64t-67.5 151zM124 207q0 -55 39 -93.5t94 -38.5t94 39t39 92q0 55 -38.5 93t-94.5 38q-55 0 -94 -38t-39 -92z" />
<glyph unicode="7" horiz-adv-x="474" d="M11 -169l303 555h-304v87h463l-387 -689z" />
<glyph unicode="8" horiz-adv-x="485" d="M33 190q0 54 23.5 95t66.5 62q-73 51 -73 141q0 81 56 135.5t139 54.5t138 -54.5t55 -136.5q0 -85 -73 -140q41 -21 64 -62.5t23 -93.5q0 -88 -57.5 -144t-148.5 -56q-92 0 -152.5 56.5t-60.5 142.5zM244 384q44 0 75 31t31 74q0 44 -31 74.5t-75 30.5t-75 -30.5 t-31 -73.5q0 -44 31 -75t75 -31zM125 194q0 -50 34.5 -84.5t83.5 -34.5q48 0 82.5 34.5t34.5 82.5t-34.5 81.5t-83.5 33.5q-48 0 -82.5 -33.5t-34.5 -79.5z" />
<glyph unicode="9" horiz-adv-x="515" d="M113 -164l162 220q-24 -3 -41 -3q-84 0 -142.5 60.5t-58.5 148.5q0 91 65 155.5t157 64.5q91 0 158.5 -64t67.5 -150q0 -77 -65 -168l-233 -316zM257 130q55 0 94 40t39 96q0 55 -39 93.5t-94 38.5t-94 -38.5t-39 -92.5q0 -57 39 -97t94 -40z" />
<glyph unicode=":" horiz-adv-x="253" d="M127 312q-25 0 -42.5 18t-17.5 43q0 24 18 41.5t42 17.5q25 0 42.5 -17.5t17.5 -42.5t-17.5 -42.5t-42.5 -17.5zM67 48q0 25 18 42.5t42 17.5q25 0 43 -17.5t18 -42.5t-17.5 -43t-42.5 -18t-43 18t-18 43z" />
<glyph unicode=";" horiz-adv-x="253" d="M147 312q-25 0 -42.5 18t-17.5 43q0 24 18 41.5t42 17.5q25 0 42.5 -17.5t17.5 -42.5t-17.5 -42.5t-42.5 -17.5zM9 -129l102 254l87 -34l-123 -247z" />
<glyph unicode="&#x3c;" d="M33 296v85l433 211v-99l-327 -155l327 -155v-99z" />
<glyph unicode="=" horiz-adv-x="567" d="M53 380v73h460v-73h-460zM53 240v73h460v-73h-460z" />
<glyph unicode="&#x3e;" d="M34 84v99l327 155l-327 155v99l433 -212v-85z" />
<glyph unicode="?" horiz-adv-x="433" d="M213 153q-62 0 -104.5 43.5t-42.5 106.5q0 50 26.5 80.5t90.5 53.5q59 21 74 32q24 16 24 49q0 29 -18 47t-48 18q-29 0 -47 -17.5t-18 -46.5q0 -15 5 -37h-100q-3 26 -3 35q0 68 46 113.5t116 45.5t117.5 -46t47.5 -114q0 -81 -59 -124q-31 -22 -101 -43 q-30 -9 -43 -21.5t-13 -32.5q0 -22 15 -36.5t36 -14.5q25 0 37.5 16t14.5 51h98q-3 -60 -26 -94q-19 -28 -54 -46t-71 -18zM156 48q0 25 18 42.5t42 17.5q25 0 43 -17.5t18 -42.5t-17.5 -43t-42.5 -18t-43 18t-18 43z" />
<glyph unicode="@" horiz-adv-x="778" d="M218 35q-79 45 -125 125t-46 174q0 146 103.5 245.5t254.5 99.5q140 0 233.5 -85.5t93.5 -212.5q0 -97 -51 -168.5t-120 -71.5q-55 0 -76 52q-53 -54 -117 -54q-72 0 -119 51.5t-47 129.5q0 84 52.5 140t131.5 56q71 0 117 -56l5 48h66l-27 -227q-4 -34 -4 -45 q0 -32 27 -32q38 0 68.5 53t30.5 119q0 106 -74 174.5t-189 68.5q-120 0 -202 -82t-82 -202q0 -78 36 -143t100 -102q66 -37 156 -37q60 0 106 11.5t112 43.5l23 -62q-115 -58 -240 -58q-114 0 -197 47zM371 214q46 0 80.5 38.5t34.5 88.5q0 40 -27 67t-68 27 q-43 0 -71.5 -33.5t-28.5 -84.5q0 -45 22.5 -74t57.5 -29z" />
<glyph unicode="A" horiz-adv-x="655" d="M3 0l330 709l318 -709h-110l-70 162h-285l-75 -162h-108zM228 257h202l-99 226z" />
<glyph unicode="B" horiz-adv-x="523" d="M80 0v667h100q111 0 160 -34q34 -23 55 -65.5t21 -87.5q0 -71 -54 -121q53 -19 83.5 -64t30.5 -104q0 -87 -67 -143q-33 -27 -71 -37.5t-105 -10.5h-153zM181 380h31q56 0 80 24q29 29 29 74q0 46 -28 72q-24 24 -77 24h-35v-194zM181 95h62q64 0 93 21q41 28 41 79 q0 50 -41 79q-32 22 -104 22h-51v-201z" />
<glyph unicode="C" horiz-adv-x="619" d="M47 330q0 145 103 247.5t249 102.5q90 0 174 -49v-119q-88 73 -181 73q-102 0 -173 -74t-71 -180q0 -104 71 -176.5t174 -72.5q49 0 90 17.5t90 58.5v-121q-87 -50 -181 -50q-143 0 -244 100.5t-101 242.5z" />
<glyph unicode="D" horiz-adv-x="642" d="M80 0v667h140q86 0 142 -15t105 -50q129 -95 129 -268q0 -174 -134 -270q-50 -37 -102.5 -50.5t-141.5 -13.5h-138zM181 95h45q114 0 178 48q91 67 91 190q0 59 -24 109.5t-67 82.5q-63 47 -178 47h-45v-477z" />
<glyph unicode="E" d="M80 0v667h368v-95h-267v-160h259v-95h-259v-222h267v-95h-368z" />
<glyph unicode="F" horiz-adv-x="449" d="M80 0v667h333v-95h-232v-160h224v-95h-224v-317h-101z" />
<glyph unicode="G" horiz-adv-x="745" d="M228 149q73 -67 162 -67q75 0 133.5 50t65.5 120h-166v95h276v-31q0 -122 -59 -203q-43 -59 -110.5 -92.5t-142.5 -33.5q-140 0 -240 101.5t-100 243.5q0 146 101.5 247t246.5 101q112 0 200 -65q34 -24 74 -71l-72 -69q-83 110 -200 110q-106 0 -177.5 -73t-71.5 -180 q0 -112 80 -183z" />
<glyph unicode="H" horiz-adv-x="649" d="M80 0v667h101v-261h287v261h101v-667h-101v311h-287v-311h-101z" />
<glyph unicode="I" horiz-adv-x="261" d="M80 0v667h101v-667h-101z" />
<glyph unicode="J" horiz-adv-x="363" d="M-18 21l50 86q36 -25 68 -25q53 0 71 50q10 30 10 103v432h101v-432q0 -73 -10.5 -115t-36.5 -73q-51 -60 -135 -60q-62 0 -118 34z" />
<glyph unicode="K" horiz-adv-x="586" d="M80 0v667h101v-266l259 266h134l-300 -302l302 -365h-134l-240 297l-21 -21v-276h-101z" />
<glyph unicode="L" horiz-adv-x="392" d="M80 0v667h101v-572h196v-95h-297z" />
<glyph unicode="M" horiz-adv-x="850" d="M57 0l140 717l229 -518l237 518l126 -717h-103l-64 402l-197 -433l-192 434l-72 -403h-104z" />
<glyph unicode="N" horiz-adv-x="747" d="M80 0v712l486 -508v463h101v-708l-486 508v-467h-101z" />
<glyph unicode="O" horiz-adv-x="790" d="M131 105q-84 93 -84 231q0 141 103.5 242.5t246.5 101.5t245 -102t102 -245q0 -144 -103 -245t-249 -101q-72 0 -141.5 31.5t-119.5 86.5zM222 153q74 -71 171 -71q105 0 177.5 72.5t72.5 178.5t-71.5 179t-175.5 73t-176 -72.5t-72 -177.5q0 -111 74 -182z" />
<glyph unicode="P" horiz-adv-x="477" d="M80 0v667h114q76 0 115.5 -9t71.5 -33q34 -26 53.5 -68t19.5 -88q0 -86 -58 -141q-58 -57 -168 -57h-47v-271h-101zM181 364h37q72 0 105 27q34 29 34 80q0 52 -37 79q-34 24 -106 24h-33v-210z" />
<glyph unicode="Q" horiz-adv-x="790" d="M130 106q-83 91 -83 225q0 145 101.5 247t246.5 102t247 -103.5t102 -251.5q0 -130 -95 -229l110 -109h-127l-52 54q-85 -54 -186 -54q-74 0 -144 31.5t-120 87.5zM220 153q74 -71 170 -71q67 0 119 30l-157 152h130l97 -97q64 68 64 165q0 107 -71.5 180t-177.5 73 t-176 -72.5t-70 -182.5q0 -108 72 -177z" />
<glyph unicode="R" horiz-adv-x="532" d="M80 0v667h118q118 0 176 -39q37 -25 58.5 -67.5t21.5 -89.5q0 -70 -40.5 -121.5t-107.5 -65.5l206 -284h-123l-190 273h-18v-273h-101zM181 361h32q67 0 101 24q42 29 42 85q0 52 -40 79q-33 23 -99 23h-36v-211z" />
<glyph unicode="S" horiz-adv-x="515" d="M85 76q-29 42 -38 108l102 23q6 -52 19 -73q13 -24 39 -38t57 -14q47 0 78 31.5t31 79.5q0 56 -46 88q-23 15 -113 53q-137 57 -137 169q0 75 57.5 126t142.5 51q60 0 103 -27t77 -85l-81 -49q-23 38 -44 52t-56 14q-41 0 -69 -23.5t-28 -59.5q0 -34 32 -56 q19 -13 107 -49q81 -34 118.5 -81t37.5 -116q0 -92 -61 -152.5t-153 -60.5q-113 0 -175 89z" />
<glyph unicode="T" horiz-adv-x="427" d="M163 0v572h-153v95h407v-95h-153v-572h-101z" />
<glyph unicode="U" horiz-adv-x="653" d="M131 81q-51 64 -51 157v429h101v-402q0 -78 21 -115q18 -31 52 -49.5t73 -18.5t72.5 18.5t51.5 49.5q21 37 21 115v402h101v-429q0 -93 -51 -157q-35 -44 -87 -69t-108 -25q-57 0 -109 25t-87 69z" />
<glyph unicode="V" horiz-adv-x="598" d="M295 -50l-292 717h110l184 -462l187 462h110z" />
<glyph unicode="W" horiz-adv-x="938" d="M286 -43l-283 710h109l174 -446l181 478l174 -478l184 446h109l-298 -710l-171 473z" />
<glyph unicode="X" horiz-adv-x="546" d="M10 0l210 349l-184 318h114l128 -226l133 226h116l-192 -319l201 -348h-112l-148 255l-152 -255h-114z" />
<glyph unicode="Y" horiz-adv-x="531" d="M215 0v288l-218 379h116l152 -267l154 267h115l-218 -379v-288h-101z" />
<glyph unicode="Z" horiz-adv-x="553" d="M30 0l327 572h-274v95h439l-327 -572h320v-95h-485z" />
<glyph unicode="[" horiz-adv-x="316" d="M87 -177v906h183v-91h-84v-724h84v-91h-183z" />
<glyph unicode="\" horiz-adv-x="458" d="M385 -183l-382 884l80 36l382 -884z" />
<glyph unicode="]" horiz-adv-x="316" d="M47 -86h84v724h-84v91h183v-906h-183v91z" />
<glyph unicode="^" d="M15 351l169 319h131l169 -319h-106l-129 239l-128 -239h-106z" />
<glyph unicode="_" d="M0 -56h500v-91h-500v91z" />
<glyph unicode="`" d="M242 486l-157 142l91 48l119 -158z" />
<glyph unicode="a" horiz-adv-x="478" d="M1 0l242 504l233 -504h-95l-38 85h-208l-40 -85h-94zM171 161h138l-68 150z" />
<glyph unicode="b" horiz-adv-x="415" d="M63 0v473h127q74 0 115.5 -35t41.5 -96q0 -54 -40 -85q74 -38 74 -114q0 -64 -44 -103.5t-132 -39.5h-142zM153 275h50q28 0 44 15.5t16 43.5q0 29 -16 46t-42 17h-52v-122zM153 76h61q80 0 80 64q0 66 -87 66h-54v-130z" />
<glyph unicode="c" horiz-adv-x="461" d="M41 234q0 103 72 175.5t175 72.5q68 0 126 -35v-115q-46 66 -126 66q-67 0 -111.5 -47t-44.5 -117q0 -66 45.5 -112.5t110.5 -46.5q37 0 70.5 18t55.5 49v-116q-61 -35 -127 -35q-103 0 -174.5 71t-71.5 172z" />
<glyph unicode="d" horiz-adv-x="476" d="M63 0v473h107q128 0 196.5 -65t68.5 -171q0 -123 -95 -192q-36 -25 -73 -35t-98 -10h-106zM156 82h18q83 0 126.5 42.5t43.5 111.5q0 70 -43.5 112.5t-126.5 42.5h-18v-309z" />
<glyph unicode="e" horiz-adv-x="389" d="M63 0v473h286v-82h-193v-100h188v-82h-188v-127h193v-82h-286z" />
<glyph unicode="f" horiz-adv-x="352" d="M63 0v473h262v-82h-169v-100h164v-82h-164v-209h-93z" />
<glyph unicode="g" horiz-adv-x="546" d="M41 236q0 103 72.5 174.5t177.5 71.5q116 0 198 -104l-67 -65q-46 85 -132 85q-68 0 -113 -46.5t-45 -116.5q0 -67 46 -113.5t111 -46.5q46 0 78.5 28.5t41.5 75.5h-115v80h210q1 -23 1 -27q0 -106 -60.5 -173.5t-160.5 -67.5q-101 0 -172 71.5t-71 173.5z" />
<glyph unicode="h" horiz-adv-x="480" d="M63 0v473h93v-182h168v182h93v-473h-93v209h-168v-209h-93z" />
<glyph unicode="i" horiz-adv-x="220" d="M63 0v473h93v-473h-93z" />
<glyph unicode="j" horiz-adv-x="288" d="M-3 22l46 75l11 -8q17 -12 40 -14q23 0 32 19.5t9 70.5v308h93v-302q0 -180 -135 -180q-46 0 -96 31z" />
<glyph unicode="k" horiz-adv-x="449" d="M63 0v473h93v-189l180 189h116l-214 -216l211 -257h-111l-162 196l-20 -21v-175h-93z" />
<glyph unicode="l" horiz-adv-x="315" d="M63 0v473h93v-391h145v-82h-238z" />
<glyph unicode="m" horiz-adv-x="576" d="M20 0l108 509l162 -347l168 347l98 -509h-95l-39 248l-133 -270l-130 271l-43 -249h-96z" />
<glyph unicode="n" horiz-adv-x="546" d="M63 0v505l327 -324v292h93v-502l-327 324v-295h-93z" />
<glyph unicode="o" horiz-adv-x="576" d="M41 239q0 99 73.5 171t174.5 72t173 -72.5t72 -173.5q0 -102 -72.5 -173.5t-176.5 -71.5q-99 0 -171.5 70.5t-72.5 177.5zM132 237q0 -68 44.5 -115t109.5 -47q66 0 111.5 47t45.5 115t-44.5 114.5t-110.5 46.5q-65 0 -110.5 -47t-45.5 -114z" />
<glyph unicode="p" horiz-adv-x="377" d="M63 0v473h116q54 0 82 -6.5t52 -24.5q25 -19 39.5 -50.5t14.5 -63.5q0 -66 -45 -106t-120 -40h-49v-182h-90zM153 258h42q87 0 87 71q0 68 -89 68h-40v-139z" />
<glyph unicode="q" horiz-adv-x="577" d="M41 235q0 103 72.5 175t175.5 72q101 0 173 -72t72 -173q0 -91 -59 -159l88 -87h-109l-37 37q-59 -37 -130 -37q-102 0 -174 71.5t-72 172.5zM132 234q0 -66 45.5 -112.5t110.5 -46.5q34 0 66 16l-114 112h111l60 -59l2 -3q30 41 30 96q0 68 -44.5 114.5t-110.5 46.5 q-67 0 -111.5 -47t-44.5 -117z" />
<glyph unicode="r" horiz-adv-x="415" d="M63 0v473h116q54 0 82 -6.5t52 -24.5q54 -43 54 -115q0 -47 -25.5 -83t-69.5 -52l126 -192h-99l-119 182h-27v-182h-90zM153 257h42q87 0 87 71q0 69 -89 69h-40v-140z" />
<glyph unicode="s" horiz-adv-x="374" d="M38 93q-6 18 -11 53l94 21q3 -50 19.5 -71t50.5 -21q28 0 47 19t19 48q0 33 -27 51q-19 13 -77 36q-104 41 -104 124q0 55 43 92t107 37q45 0 76 -19.5t59 -62.5l7 -11l-76 -45q-3 4 -7 12q-13 25 -25.5 33.5t-33.5 8.5q-25 0 -41.5 -13t-16.5 -33q0 -18 16.5 -30 t72.5 -35q64 -26 91 -58.5t27 -82.5q0 -66 -46 -110.5t-114 -44.5q-52 0 -92.5 27.5t-57.5 74.5z" />
<glyph unicode="t" horiz-adv-x="325" d="M117 0v391h-110v82h312v-82h-109v-391h-93z" />
<glyph unicode="u" horiz-adv-x="490" d="M60 172v301h93v-282q0 -116 92 -116q46 0 69 27t23 89v282h93v-301q0 -78 -52.5 -129.5t-132.5 -51.5t-132.5 51.5t-52.5 129.5z" />
<glyph unicode="v" horiz-adv-x="435" d="M215 -36l-215 509h95l122 -297l123 297h95z" />
<glyph unicode="w" horiz-adv-x="663" d="M209 -36l-209 509h94l115 -285l122 308l117 -309l121 286h94l-220 -509l-114 307z" />
<glyph unicode="x" horiz-adv-x="401" d="M1 0l154 247l-136 226h96l89 -148l92 148h97l-142 -227l148 -246h-95l-102 168l-105 -168h-96z" />
<glyph unicode="y" horiz-adv-x="391" d="M149 0v203l-156 270h97l105 -184l106 184h97l-156 -270v-203h-93z" />
<glyph unicode="z" horiz-adv-x="381" d="M3 0l230 391h-185v82h330l-231 -391h217v-82h-361z" />
<glyph unicode="{" horiz-adv-x="316" d="M97 -39v213q0 23 -15.5 40.5t-40.5 23.5v83q30 8 43 27t13 56v192q0 74 27.5 107.5t88.5 33.5q19 0 33 -1q14 0 25 -1v-87q-4 1 -12 1q-46 0 -57 -27q-5 -11 -5 -52v-173q0 -50 -12.5 -75t-48.5 -46q61 -37 61 -96v-196q0 -52 11 -64q15 -19 51 -17q8 0 12 1v-87l-55 -2 q-63 -2 -91 32.5t-28 113.5z" />
<glyph unicode="|" d="M200 -167v834h100v-834h-100z" />
<glyph unicode="}" horiz-adv-x="316" d="M45 -96l12 -1q44 -3 57 27q5 11 5 52v173q0 50 12.5 75t48.5 46q-61 37 -61 96v196q0 50 -12 65.5t-50 15.5q-8 0 -12 -1v87q11 1 24 1q16 1 31 1q64 0 91.5 -34t27.5 -112v-213q0 -22 15 -39.5t41 -24.5v-83q-30 -7 -43 -26t-13 -56v-193q0 -75 -27.5 -108.5 t-88.5 -32.5l-58 2v87z" />
<glyph unicode="~" horiz-adv-x="667" d="M143 571q-18 0 -51 38q34 71 65 98.5t78 27.5q42 0 109 -30q62 -27 92 -27q24 0 45 14t31 36q5 11 12 11q18 0 52 -36q-33 -66 -67.5 -94t-82.5 -28q-38 0 -112 34q-54 24 -88 24q-20 0 -42.5 -17.5t-29.5 -39.5q-4 -11 -11 -11z" />
<glyph unicode="&#xa1;" horiz-adv-x="293" d="M147 406q-25 0 -42.5 17.5t-17.5 42.5t17.5 42.5t42.5 17.5t42.5 -18t17.5 -43q0 -24 -17.5 -41.5t-42.5 -17.5zM98 -153v518h97v-518h-97z" />
<glyph unicode="&#xa2;" horiz-adv-x="567" d="M149 182q-59 64 -59 152q0 59 26 108.5t72 78.5q29 18 74 33v85h74v-84q56 -7 99 -28v-130q-35 38 -61.5 53t-61.5 15q-55 0 -90 -37t-35 -96q0 -58 34.5 -93t90.5 -35q53 0 92 36q6 6 31 36v-135q-53 -22 -99 -28v-86h-74v90q-44 13 -67 26.5t-46 38.5z" />
<glyph unicode="&#xa3;" horiz-adv-x="567" d="M26 29q32 57 62 81t76 28q10 34 10 62q0 29 -15 58h-114v71h78q-42 86 -42 142q0 86 65.5 146.5t157.5 60.5q94 0 151 -58t62 -158l-99 -37q-2 76 -15 101q-27 57 -99 57q-52 0 -86 -33.5t-34 -86.5q0 -52 46 -126l5 -8h130v-71h-101q11 -41 11 -61q0 -25 -13 -69 q11 -4 23.5 -8t19.5 -6.5t10 -3.5q57 -21 77 -21q19 0 33 13t35 50l81 -48q-21 -44 -42 -68q-42 -45 -106 -45q-40 0 -111 26q-75 27 -101 27q-25 0 -38 -11t-31 -48z" />
<glyph unicode="&#xa4;" horiz-adv-x="667" d="M93 75l-54 55l98 99q-48 66 -48 140q0 73 48 139l-100 99l55 56l99 -100q71 48 143 48t140 -47l99 98l54 -55l-97 -98q48 -71 48 -141q0 -69 -47 -139l99 -99l-55 -55l-99 99q-67 -48 -142 -48q-69 0 -142 47zM334 215q62 0 107 44.5t45 106.5q0 65 -44.5 110.5 t-108.5 45.5q-63 0 -107.5 -45t-44.5 -109q0 -63 45 -108t108 -45z" />
<glyph unicode="&#xa5;" horiz-adv-x="567" d="M236 0v232h-191v71h183l-41 73h-142v71h104l-121 220h109l146 -267l146 267h110l-121 -220h104v-71h-143l-41 -73h184v-71h-192v-232h-94z" />
<glyph unicode="&#xa6;" d="M200 327v340h100v-340h-100zM200 153h100v-320h-100v320z" />
<glyph unicode="&#xa7;" horiz-adv-x="567" d="M83 8h95q12 -102 99 -102q42 0 65.5 24t23.5 66q0 47 -34 70q-20 15 -83 39q-73 29 -103 51q-54 42 -54 122q0 109 94 151q-78 47 -78 129q0 73 56 125.5t135 52.5q52 0 95.5 -26t65.5 -69q21 -41 24 -108h-92q-4 57 -26 83.5t-67 26.5q-41 0 -68 -25.5t-27 -65.5 q0 -38 31 -59q18 -12 84 -36q73 -26 109 -52q56 -40 56 -125q0 -52 -21.5 -87.5t-72.5 -66.5q40 -26 57 -56.5t17 -75.5q0 -79 -53 -130t-135 -51q-59 0 -106.5 27.5t-67.5 74.5q-16 35 -19 93zM187 280q0 -41 29.5 -70t71.5 -29q41 0 70.5 29t29.5 69t-29.5 68.5 t-71.5 28.5q-41 0 -70.5 -28.5t-29.5 -67.5z" />
<glyph unicode="&#xa8;" d="M341 492q-26 0 -44 18.5t-18 44.5q0 25 18.5 43t43.5 18t43.5 -18t18.5 -44t-18.5 -44t-43.5 -18zM160 492q-26 0 -44 18.5t-18 44.5q0 25 18.5 43t43.5 18q26 0 44 -18t18 -44t-18 -44t-44 -18z" />
<glyph unicode="&#xa9;" horiz-adv-x="758" d="M33 335q0 141 101.5 243.5t241.5 102.5q146 0 247.5 -101t101.5 -246q0 -144 -101 -246t-244 -102q-144 0 -245.5 102t-101.5 247zM89 334q0 -123 85 -210.5t205 -87.5q121 0 205.5 87t84.5 211q0 79 -41 151t-106 107q-71 38 -145 38q-118 0 -203 -87.5t-85 -208.5z M179 332q0 87 64 148t155 61q57 0 114 -31v-87q-37 30 -61 40t-57 10q-58 0 -98.5 -41t-40.5 -100q0 -58 40.5 -98t98.5 -40q32 0 55.5 10t62.5 41v-88q-58 -31 -118 -31q-90 0 -152.5 60t-62.5 146z" />
<glyph unicode="&#xaa;" horiz-adv-x="362" d="M167 393q-55 0 -90.5 38t-35.5 97q0 57 35.5 95t88.5 38q46 0 80 -34v27h64v-254h-64v24q-36 -31 -78 -31zM176 448q32 0 52.5 22t20.5 56q0 35 -20.5 57t-51.5 22t-51 -22t-20 -55q0 -35 19.5 -57.5t50.5 -22.5z" />
<glyph unicode="&#xab;" horiz-adv-x="509" d="M225 214l166 220l65 -48l-130 -172l130 -166l-65 -47zM206 1l-166 213l166 220l65 -48l-130 -172l130 -166z" />
<glyph unicode="&#xac;" d="M33 173v93h433v-266h-100v173h-333z" />
<glyph unicode="&#xad;" horiz-adv-x="193" d="M0 171v85h193v-85h-193z" />
<glyph unicode="&#xae;" horiz-adv-x="758" d="M33 335q0 141 101.5 243.5t241.5 102.5q146 0 247.5 -101t101.5 -246q0 -144 -101 -246t-244 -102q-144 0 -245.5 102t-101.5 247zM89 334q0 -123 85 -210.5t205 -87.5q121 0 205.5 87t84.5 211q0 79 -41 151t-106 107q-71 38 -145 38q-118 0 -203 -87.5t-85 -208.5z M255 133v400h80q75 0 113 -23q52 -34 52 -97q0 -38 -23 -69t-58 -42l-5 -1l129 -168h-93l-118 159l-1 -159h-76zM331 356h13q82 0 82 56q0 53 -80 53h-15v-109z" />
<glyph unicode="&#xaf;" d="M99 502v78h303v-78h-303z" />
<glyph unicode="&#xb0;" horiz-adv-x="567" d="M284 410q-56 0 -95 39t-39 95q0 55 39.5 94t95.5 39q54 0 93 -39.5t39 -93.5q0 -55 -39 -94.5t-94 -39.5zM284 470q29 0 49.5 21.5t20.5 51.5q0 28 -20.5 47.5t-49.5 19.5q-30 0 -50.5 -19.5t-20.5 -47.5q0 -30 21 -51.5t50 -21.5z" />
<glyph unicode="&#xb1;" horiz-adv-x="567" d="M243 133v174h-190v80h190v186h80v-186h190v-80h-190v-174h-80zM53 0v80h460v-80h-460z" />
<glyph unicode="&#xb2;" horiz-adv-x="273" d="M14 394l109 123q49 54 49 74q0 16 -12.5 26.5t-30.5 10.5q-20 0 -30 -11t-13 -37h-57q3 27 10 42q24 56 89 56q42 0 70.5 -25.5t28.5 -62.5q0 -22 -13 -43.5t-50 -63.5l-34 -38h98v-51h-214z" />
<glyph unicode="&#xb3;" horiz-adv-x="273" d="M125 389q-66 0 -89 52q-5 12 -8 38h55l1 -6q6 -34 43 -34q19 0 30.5 11.5t11.5 28.5q0 27 -21 34q-9 4 -37 4v48h7h11q36 0 36 31q0 14 -10.5 23t-26.5 9q-29 0 -36 -31l-1 -5h-56q5 28 11 41q22 45 82 45q41 0 66.5 -22.5t25.5 -58.5q0 -32 -25 -56q30 -24 30 -64 q0 -38 -28 -63t-72 -25z" />
<glyph unicode="&#xb4;" d="M258 486l-53 32l119 158l91 -48z" />
<glyph unicode="&#xb5;" horiz-adv-x="482" d="M151 10l7 -239h-97v650h97v-244q0 -103 83 -103q49 0 70 38q12 21 12 67v242h97v-244q0 -90 -44 -137q-51 -53 -132 -53q-50 0 -93 23z" />
<glyph unicode="&#xb6;" horiz-adv-x="567" d="M191 -95v430q-76 -1 -120 43t-44 120q0 99 69 141q44 28 126 28h310l-56 -93h-26v-669h-92v669h-75v-669h-92z" />
<glyph unicode="&#xb7;" horiz-adv-x="253" d="M127 153q-25 0 -42.5 18t-17.5 43q0 24 18 41.5t42 17.5q25 0 42.5 -17.5t17.5 -42.5t-17.5 -42.5t-42.5 -17.5z" />
<glyph unicode="&#xb8;" d="M174 -186l86 133l80 -33l-103 -132z" />
<glyph unicode="&#xb9;" horiz-adv-x="273" d="M116 393v229h-55l32 51h80v-280h-57z" />
<glyph unicode="&#xba;" horiz-adv-x="363" d="M180 393q-58 0 -98.5 39.5t-40.5 96.5q0 55 41 93.5t99 38.5q59 0 100 -39t41 -95q0 -57 -41 -95.5t-101 -38.5zM181 448q35 0 55.5 21.5t20.5 57.5q0 35 -20.5 57t-54.5 22t-55 -21.5t-21 -56.5q0 -36 20.5 -58t54.5 -22z" />
<glyph unicode="&#xbb;" horiz-adv-x="509" d="M238 48l129 166l-129 172l65 48l166 -220l-167 -213zM53 48l129 166l-129 172l65 48l166 -220l-166 -213z" />
<glyph unicode="&#xbc;" horiz-adv-x="855" d="M213 18l382 660l47 -26l-382 -663zM150 267v338h-73l38 62h103v-400h-68zM514 56l272 381v-321h42v-60h-42v-56h-69v56h-203zM633 116h84v118z" />
<glyph unicode="&#xbd;" horiz-adv-x="855" d="M213 18l382 660l47 -26l-382 -663zM150 267v338h-73l38 62h103v-400h-68zM522 0l146 171q70 82 70 114q0 26 -19 44t-47 18q-58 0 -67 -71h-68q7 52 25 77q37 55 109 55q56 0 95 -35.5t39 -87.5q0 -32 -18 -63.5t-70 -91.5l-58 -67h147v-63h-284z" />
<glyph unicode="&#xbe;" horiz-adv-x="855" d="M213 18l382 660l47 -26l-382 -663zM155 260q-79 0 -115 60q-12 19 -16 60h66q10 -59 68 -59q28 0 46.5 18.5t18.5 46.5q0 38 -28 54q-14 9 -54 9v57h3q30 0 45 5q28 11 28 48q0 24 -16.5 39t-42.5 15q-46 0 -56 -54h-68q8 45 23 68q31 47 103 47q55 0 89.5 -31.5 t34.5 -81.5q0 -54 -41 -84q47 -29 47 -93q0 -55 -38 -89.5t-97 -34.5zM514 56l272 381v-321h42v-60h-42v-56h-69v56h-203zM633 116h84v118z" />
<glyph unicode="&#xbf;" horiz-adv-x="433" d="M216 406q-25 0 -42.5 17.5t-17.5 42.5t17.5 42.5t42.5 17.5t42.5 -18t17.5 -43q0 -24 -17.5 -41.5t-42.5 -17.5zM53 -3q0 81 59 124q30 21 101 43q30 9 43 21.5t13 32.5q0 22 -15 36.5t-36 14.5q-25 0 -37.5 -16t-14.5 -51h-98q3 60 26 94q20 29 54.5 46.5t71.5 17.5 q61 0 103.5 -43.5t42.5 -106.5q0 -50 -26.5 -80.5t-90.5 -53.5q-58 -21 -74 -32q-24 -16 -24 -49q0 -29 18.5 -47t48.5 -18q29 0 47 17.5t18 47.5q0 14 -6 36h101q2 -34 2 -35q0 -68 -46 -113.5t-116 -45.5t-117.5 46t-47.5 114z" />
<glyph unicode="&#xc0;" horiz-adv-x="655" d="M338 727l-176 119l85 60l139 -139zM3 0l330 709l318 -709h-110l-70 162h-285l-75 -162h-108zM228 257h202l-99 226z" />
<glyph unicode="&#xc1;" horiz-adv-x="655" d="M330 727l-48 40l138 139l86 -60zM3 0l330 709l318 -709h-110l-70 162h-285l-75 -162h-108zM228 257h202l-99 226z" />
<glyph unicode="&#xc2;" horiz-adv-x="655" d="M251 727l-66 51l152 139l153 -139l-66 -51l-87 81zM3 0l330 709l318 -709h-110l-70 162h-285l-75 -162h-108zM228 257h202l-99 226z" />
<glyph unicode="&#xc3;" horiz-adv-x="655" d="M219 733l-56 48q26 38 37 50q29 31 73 31q35 0 78 -23q44 -22 58 -22t26 10t28 36l55 -46q-42 -83 -113 -83q-27 0 -79 24q-43 20 -58 20q-24 0 -49 -45zM3 0l330 709l318 -709h-110l-70 162h-285l-75 -162h-108zM228 257h202l-99 226z" />
<glyph unicode="&#xc4;" horiz-adv-x="655" d="M428 733q-26 0 -44 18.5t-18 44.5q0 25 18.5 43t43.5 18q26 0 44 -18.5t18 -43.5t-18 -43.5t-44 -18.5zM234 733q-26 0 -44 18.5t-18 44.5q0 25 18.5 43t43.5 18q26 0 44 -18.5t18 -43.5t-18 -43.5t-44 -18.5zM3 0l330 709l318 -709h-110l-70 162h-285l-75 -162h-108z M228 257h202l-99 226z" />
<glyph unicode="&#xc5;" horiz-adv-x="655" d="M337 727q-39 0 -66.5 28t-27.5 67q0 38 28 65.5t66 27.5q39 0 66.5 -27.5t27.5 -66.5t-27.5 -66.5t-66.5 -27.5zM337 779q18 0 30.5 12.5t12.5 29.5t-12.5 29.5t-30.5 12.5q-17 0 -30 -12.5t-13 -28.5q0 -18 12.5 -30.5t30.5 -12.5zM3 0l330 709l318 -709h-110l-70 162 h-285l-75 -162h-108zM228 257h202l-99 226z" />
<glyph unicode="&#xc6;" horiz-adv-x="926" d="M10 0l320 667h295l42 -95h-265l70 -161h258l42 -95h-258l95 -221h266l41 -95h-370l-70 159h-283l-73 -159h-110zM238 254h198l-95 219z" />
<glyph unicode="&#xc7;" horiz-adv-x="619" d="M47 330q0 145 103 247.5t249 102.5q90 0 174 -49v-119q-88 73 -181 73q-102 0 -173 -74t-71 -180q0 -104 71 -176.5t174 -72.5q49 0 90 17.5t90 58.5v-121q-87 -50 -181 -50q-143 0 -244 100.5t-101 242.5zM253 -191l91 138l86 -38l-113 -133z" />
<glyph unicode="&#xc8;" d="M287 727l-176 119l85 60l139 -139zM80 0v667h368v-95h-267v-160h259v-95h-259v-222h267v-95h-368z" />
<glyph unicode="&#xc9;" d="M256 727l-48 40l138 139l86 -60zM80 0v667h368v-95h-267v-160h259v-95h-259v-222h267v-95h-368z" />
<glyph unicode="&#xca;" d="M184 727l-66 51l152 139l153 -139l-66 -51l-87 81zM80 0v667h368v-95h-267v-160h259v-95h-259v-222h267v-95h-368z" />
<glyph unicode="&#xcb;" d="M365 733q-26 0 -44 18.5t-18 44.5q0 25 18.5 43t43.5 18t43.5 -18.5t18.5 -43.5t-18.5 -43.5t-43.5 -18.5zM171 733q-26 0 -44 18.5t-18 44.5q0 25 18.5 43t43.5 18t43.5 -18.5t18.5 -43.5t-18.5 -43.5t-43.5 -18.5zM80 0v667h368v-95h-267v-160h259v-95h-259v-222h267 v-95h-368z" />
<glyph unicode="&#xcc;" horiz-adv-x="261" d="M134 727l-166 119l82 60l132 -139zM79 0v667h101v-667h-101z" />
<glyph unicode="&#xcd;" horiz-adv-x="261" d="M133 727l-48 40l132 139l82 -60zM80 0v667h101v-667h-101z" />
<glyph unicode="&#xce;" horiz-adv-x="261" d="M47 727l-66 51l152 139l153 -139l-66 -51l-87 81zM80 0v667h101v-667h-101z" />
<glyph unicode="&#xcf;" horiz-adv-x="261" d="M215 733q-26 0 -44 18.5t-18 44.5q0 25 18.5 43t43.5 18t43.5 -18.5t18.5 -43.5t-18.5 -43.5t-43.5 -18.5zM52 733q-26 0 -44 18.5t-18 44.5q0 25 18.5 43t43.5 18q26 0 44 -18.5t18 -43.5t-18 -43.5t-44 -18.5zM80 0v667h101v-667h-101z" />
<glyph unicode="&#xd0;" horiz-adv-x="642" d="M80 0v303h-60v87h60v277h140q86 0 141.5 -15t104.5 -50q129 -95 129 -269q0 -173 -134 -269q-50 -37 -102 -50.5t-141 -13.5h-138zM181 95h45q114 0 177 48q91 67 91 190q0 59 -24 110t-67 82q-63 47 -177 47h-45v-182h143v-87h-143v-208z" />
<glyph unicode="&#xd1;" horiz-adv-x="747" d="M265 733l-56 48q26 38 37 50q29 31 73 31q35 0 78 -23q44 -22 58 -22t26 10t28 36l55 -46q-42 -83 -113 -83q-27 0 -79 24q-43 20 -58 20q-24 0 -49 -45zM80 0v712l486 -508v463h101v-708l-486 508v-467h-101z" />
<glyph unicode="&#xd2;" horiz-adv-x="790" d="M409 727l-176 119l85 60l139 -139zM131 105q-84 93 -84 231q0 141 103.5 242.5t246.5 101.5t245 -102t102 -245q0 -144 -103 -245t-249 -101q-72 0 -141.5 31.5t-119.5 86.5zM222 153q74 -71 171 -71q105 0 177.5 72.5t72.5 178.5t-71.5 179t-175.5 73t-176 -72.5 t-72 -177.5q0 -111 74 -182z" />
<glyph unicode="&#xd3;" horiz-adv-x="790" d="M388 727l-48 40l138 139l86 -60zM131 105q-84 93 -84 231q0 141 103.5 242.5t246.5 101.5t245 -102t102 -245q0 -144 -103 -245t-249 -101q-72 0 -141.5 31.5t-119.5 86.5zM222 153q74 -71 171 -71q105 0 177.5 72.5t72.5 178.5t-71.5 179t-175.5 73t-176 -72.5 t-72 -177.5q0 -111 74 -182z" />
<glyph unicode="&#xd4;" horiz-adv-x="790" d="M315 727l-66 51l152 139l153 -139l-66 -51l-87 81zM131 105q-84 93 -84 231q0 141 103.5 242.5t246.5 101.5t245 -102t102 -245q0 -144 -103 -245t-249 -101q-72 0 -141.5 31.5t-119.5 86.5zM222 153q74 -71 171 -71q105 0 177.5 72.5t72.5 178.5t-71.5 179t-175.5 73 t-176 -72.5t-72 -177.5q0 -111 74 -182z" />
<glyph unicode="&#xd5;" horiz-adv-x="790" d="M294 733l-56 48q26 38 37 50q29 31 73 31q35 0 78 -23q44 -22 58 -22t26 10t28 36l55 -46q-42 -83 -113 -83q-27 0 -79 24q-43 20 -58 20q-24 0 -49 -45zM131 105q-84 93 -84 231q0 141 103.5 242.5t246.5 101.5t245 -102t102 -245q0 -144 -103 -245t-249 -101 q-72 0 -141.5 31.5t-119.5 86.5zM222 153q74 -71 171 -71q105 0 177.5 72.5t72.5 178.5t-71.5 179t-175.5 73t-176 -72.5t-72 -177.5q0 -111 74 -182z" />
<glyph unicode="&#xd6;" horiz-adv-x="790" d="M496 733q-26 0 -44 18.5t-18 44.5q0 25 18.5 43t43.5 18q26 0 44 -18.5t18 -43.5t-18 -43.5t-44 -18.5zM302 733q-26 0 -44 18.5t-18 44.5q0 25 18.5 43t43.5 18q26 0 44 -18.5t18 -43.5t-18 -43.5t-44 -18.5zM131 105q-84 93 -84 231q0 141 103.5 242.5t246.5 101.5 t245 -102t102 -245q0 -144 -103 -245t-249 -101q-72 0 -141.5 31.5t-119.5 86.5zM222 153q74 -71 171 -71q105 0 177.5 72.5t72.5 178.5t-71.5 179t-175.5 73t-176 -72.5t-72 -177.5q0 -111 74 -182z" />
<glyph unicode="&#xd7;" horiz-adv-x="567" d="M141 150l-55 54l142 143l-142 142l55 55l142 -143l142 143l55 -55l-142 -142l142 -143l-55 -54l-142 142z" />
<glyph unicode="&#xd8;" horiz-adv-x="789" d="M47 50l70 71q-70 93 -70 210q0 145 102.5 247t248.5 102q112 0 207 -70l73 73l57 -57l-71 -74q79 -99 79 -220q0 -142 -102.5 -243.5t-245.5 -101.5q-119 0 -221 77l-71 -71zM190 191l345 352q-64 42 -138 42q-106 0 -177.5 -73t-71.5 -182q0 -71 42 -139zM246 133 q72 -51 150 -51q102 0 174 73.5t72 177.5q0 84 -49 153z" />
<glyph unicode="&#xd9;" horiz-adv-x="653" d="M344 727l-176 119l85 60l139 -139zM131 81q-51 64 -51 157v429h101v-402q0 -78 21 -115q18 -31 52 -49.5t73 -18.5t72.5 18.5t51.5 49.5q21 37 21 115v402h101v-429q0 -93 -51 -157q-35 -44 -87 -69t-108 -25q-57 0 -109 25t-87 69z" />
<glyph unicode="&#xda;" horiz-adv-x="653" d="M323 727l-48 40l138 139l86 -60zM131 81q-51 64 -51 157v429h101v-402q0 -78 21 -115q18 -31 52 -49.5t73 -18.5t72.5 18.5t51.5 49.5q21 37 21 115v402h101v-429q0 -93 -51 -157q-35 -44 -87 -69t-108 -25q-57 0 -109 25t-87 69z" />
<glyph unicode="&#xdb;" horiz-adv-x="653" d="M250 727l-66 51l152 139l153 -139l-66 -51l-87 81zM131 81q-51 64 -51 157v429h101v-402q0 -78 21 -115q18 -31 52 -49.5t73 -18.5t72.5 18.5t51.5 49.5q21 37 21 115v402h101v-429q0 -93 -51 -157q-35 -44 -87 -69t-108 -25q-57 0 -109 25t-87 69z" />
<glyph unicode="&#xdc;" horiz-adv-x="653" d="M431 733q-26 0 -44 18.5t-18 44.5q0 25 18.5 43t43.5 18t43.5 -18.5t18.5 -43.5t-18.5 -43.5t-43.5 -18.5zM237 733q-26 0 -44 18.5t-18 44.5q0 25 18.5 43t43.5 18t43.5 -18.5t18.5 -43.5t-18.5 -43.5t-43.5 -18.5zM131 81q-51 64 -51 157v429h101v-402q0 -78 21 -115 q18 -31 52 -49.5t73 -18.5t72.5 18.5t51.5 49.5q21 37 21 115v402h101v-429q0 -93 -51 -157q-35 -44 -87 -69t-108 -25q-57 0 -109 25t-87 69z" />
<glyph unicode="&#xdd;" horiz-adv-x="531" d="M272 727l-48 40l138 139l86 -60zM215 0v288l-218 379h116l152 -267l154 267h115l-218 -379v-288h-101z" />
<glyph unicode="&#xde;" horiz-adv-x="477" d="M80 0v667h101v-94h13q76 0 115.5 -9t71.5 -33q34 -25 53.5 -67t19.5 -88q0 -87 -58 -142q-58 -57 -168 -57h-47v-177h-101zM181 270h37q72 0 105 27q34 29 34 80q0 53 -37 80q-34 24 -106 24h-33v-211z" />
<glyph unicode="&#xdf;" horiz-adv-x="715" d="M389 93q-5 13 -12 53l94 21q2 -42 13 -62q18 -30 57 -30q28 0 47 19t19 48q0 33 -27 51q-15 11 -77 36q-104 41 -104 124q0 55 43 92t107 37q87 0 136 -82l6 -11l-76 -45q-4 8 -7 12q-13 25 -25 33.5t-34 8.5q-25 0 -41.5 -13t-16.5 -33q0 -18 16.5 -30t72.5 -35 q64 -26 91 -58.5t27 -82.5q0 -66 -46 -110.5t-114 -44.5q-53 0 -93 27.5t-56 74.5zM31 93q-6 18 -11 53l94 21q2 -42 13 -62q17 -30 57 -30q28 0 47 19t19 48q0 33 -27 51q-15 11 -77 36q-104 41 -104 124q0 55 43 92t107 37q86 0 135 -82l7 -11l-76 -45q-3 4 -7 12 q-13 25 -25.5 33.5t-33.5 8.5q-25 0 -41.5 -13t-16.5 -33q0 -18 16.5 -30t72.5 -35q64 -26 91 -58.5t27 -82.5q0 -66 -46 -110.5t-114 -44.5q-52 0 -92.5 27.5t-57.5 74.5z" />
<glyph unicode="&#xe0;" horiz-adv-x="478" d="M287 512l-167 113l81 57l131 -132zM1 0l242 504l233 -504h-95l-38 85h-208l-40 -85h-94zM171 161h138l-68 150z" />
<glyph unicode="&#xe1;" horiz-adv-x="478" d="M243 512l-46 38l131 132l82 -57zM1 0l242 504l233 -504h-95l-38 85h-208l-40 -85h-94zM171 161h138l-68 150z" />
<glyph unicode="&#xe2;" horiz-adv-x="478" d="M164 512l-62 49l144 131l146 -131l-63 -49l-83 77zM1 0l242 504l233 -504h-95l-38 85h-208l-40 -85h-94zM171 161h138l-68 150z" />
<glyph unicode="&#xe3;" horiz-adv-x="478" d="M143 530l-45 47q22 38 30 48q23 30 59 30q26 0 63 -22q35 -22 46 -22q12 0 20.5 9t22.5 36l45 -45q-34 -79 -90 -79q-23 0 -65 23q-34 19 -47 19q-20 0 -39 -44zM1 0l242 504l233 -504h-95l-38 85h-208l-40 -85h-94zM171 161h138l-68 150z" />
<glyph unicode="&#xe4;" horiz-adv-x="478" d="M332 532q-25 0 -42 17t-17 42q0 24 17.5 41t41.5 17t41 -17t17 -41q0 -25 -17 -42t-41 -17zM163 532q-25 0 -42 17t-17 42q0 24 17.5 41t41.5 17t41 -17t17 -41q0 -25 -17 -42t-41 -17zM1 0l242 504l233 -504h-95l-38 85h-208l-40 -85h-94zM171 161h138l-68 150z" />
<glyph unicode="&#xe5;" horiz-adv-x="478" d="M1 0l240 501q-38 2 -63 27.5t-25 62.5t26 63t63 26t63.5 -26t26.5 -63t-25 -62.5t-63 -27.5l232 -501h-95l-38 85h-208l-40 -85h-94zM243 550q17 0 28.5 12t11.5 29t-11.5 28.5t-28.5 11.5t-29 -11.5t-12 -28.5t12 -29t29 -12zM171 161h138l-68 150z" />
<glyph unicode="&#xe6;" horiz-adv-x="650" d="M1 0l227 473h215l36 -82h-178l42 -100h175l35 -82h-174l55 -127h180l35 -82h-268l-42 92h-200l-44 -92h-94zM178 172h124l-61 132z" />
<glyph unicode="&#xe7;" horiz-adv-x="461" d="M41 234q0 103 72 175.5t175 72.5q68 0 126 -35v-115q-46 66 -126 66q-67 0 -111.5 -47t-44.5 -117q0 -66 45.5 -112.5t110.5 -46.5q37 0 70.5 18t55.5 49v-116q-61 -35 -127 -35q-103 0 -174.5 71t-71.5 172zM170 -155l86 133l80 -33l-103 -132z" />
<glyph unicode="&#xe8;" horiz-adv-x="389" d="M260 512l-167 113l82 57l131 -132zM63 0v473h286v-82h-193v-100h188v-82h-188v-127h193v-82h-286z" />
<glyph unicode="&#xe9;" horiz-adv-x="389" d="M187 512l-46 38l132 132l81 -57zM63 0v473h286v-82h-193v-100h188v-82h-188v-127h193v-82h-286z" />
<glyph unicode="&#xea;" horiz-adv-x="389" d="M132 512l-63 49l144 131l146 -131l-63 -49l-83 77zM63 0v473h286v-82h-193v-100h188v-82h-188v-127h193v-82h-286z" />
<glyph unicode="&#xeb;" horiz-adv-x="389" d="M291 532q-25 0 -42 17t-17 42q0 24 17.5 41t41.5 17t41 -17t17 -41q0 -25 -17 -42t-41 -17zM122 532q-25 0 -42 17t-17 42q0 24 17.5 41t41.5 17t41 -17t17 -41q0 -25 -17 -42t-41 -17zM63 0v473h286v-82h-193v-100h188v-82h-188v-127h193v-82h-286z" />
<glyph unicode="&#xec;" horiz-adv-x="220" d="M147 512l-167 113l81 57l132 -132zM63 0v473h93v-473h-93z" />
<glyph unicode="&#xed;" horiz-adv-x="220" d="M106 512l-46 38l131 132l82 -57zM63 0v473h93v-473h-93z" />
<glyph unicode="&#xee;" horiz-adv-x="220" d="M27 512l-62 49l144 131l146 -131l-63 -49l-83 77zM63 0v473h93v-473h-93z" />
<glyph unicode="&#xef;" horiz-adv-x="220" d="M179 532q-25 0 -42 17t-17 42q0 24 17.5 41t41.5 17t41 -17t17 -41q0 -25 -17 -42t-41 -17zM42 532q-25 0 -42 17t-17 42q0 24 17.5 41t41.5 17t41 -17t17 -41q0 -25 -17 -42t-41 -17zM64 0v473h93v-473h-93z" />
<glyph unicode="&#xf0;" horiz-adv-x="483" d="M70 0v204h-40v82h40v187h107q109 0 173 -46q92 -67 92 -190t-95 -192q-35 -25 -72 -35t-99 -10h-106zM163 82h18q72 0 113 31q57 44 57 124q0 81 -56 124q-41 30 -114 30h-18v-105h97v-82h-97v-122z" />
<glyph unicode="&#xf1;" horiz-adv-x="546" d="M180 530l-46 47l30 48q23 30 59 30q28 0 63 -22q36 -22 46 -22q12 0 21 9t23 36l44 -45q-33 -79 -90 -79q-23 0 -64 23q-35 19 -47 19q-11 0 -20 -9.5t-19 -34.5zM63 0v505l327 -324v292h93v-502l-327 324v-295h-93z" />
<glyph unicode="&#xf2;" horiz-adv-x="576" d="M338 512l-167 113l81 57l132 -132zM41 239q0 99 73.5 171t174.5 72t173 -72.5t72 -173.5q0 -102 -72.5 -173.5t-176.5 -71.5q-99 0 -171.5 70.5t-72.5 177.5zM132 237q0 -68 44.5 -115t109.5 -47q66 0 111.5 47t45.5 115t-44.5 114.5t-110.5 46.5q-65 0 -110.5 -47 t-45.5 -114z" />
<glyph unicode="&#xf3;" horiz-adv-x="576" d="M283 512l-45 38l131 132l82 -57zM41 239q0 99 73.5 171t174.5 72t173 -72.5t72 -173.5q0 -102 -72.5 -173.5t-176.5 -71.5q-99 0 -171.5 70.5t-72.5 177.5zM132 237q0 -68 44.5 -115t109.5 -47q66 0 111.5 47t45.5 115t-44.5 114.5t-110.5 46.5q-65 0 -110.5 -47 t-45.5 -114z" />
<glyph unicode="&#xf4;" horiz-adv-x="576" d="M212 512l-63 49l144 131l146 -131l-63 -49l-83 77zM41 239q0 99 73.5 171t174.5 72t173 -72.5t72 -173.5q0 -102 -72.5 -173.5t-176.5 -71.5q-99 0 -171.5 70.5t-72.5 177.5zM132 237q0 -68 44.5 -115t109.5 -47q66 0 111.5 47t45.5 115t-44.5 114.5t-110.5 46.5 q-65 0 -110.5 -47t-45.5 -114z" />
<glyph unicode="&#xf5;" horiz-adv-x="576" d="M194 530l-45 47l30 48q23 30 59 30q28 0 63 -22t46 -22q12 0 21 9t23 36l44 -45q-33 -79 -90 -79q-23 0 -64 23q-35 19 -48 19q-19 0 -39 -44zM41 239q0 99 73.5 171t174.5 72t173 -72.5t72 -173.5q0 -102 -72.5 -173.5t-176.5 -71.5q-99 0 -171.5 70.5t-72.5 177.5z M132 237q0 -68 44.5 -115t109.5 -47q66 0 111.5 47t45.5 115t-44.5 114.5t-110.5 46.5q-65 0 -110.5 -47t-45.5 -114z" />
<glyph unicode="&#xf6;" horiz-adv-x="576" d="M373 532q-25 0 -42 17t-17 42q0 24 17.5 41t41.5 17t41 -17t17 -41q0 -25 -17 -42t-41 -17zM204 532q-25 0 -42 17t-17 42q0 24 17.5 41t41.5 17t41 -17t17 -41q0 -25 -17 -42t-41 -17zM41 239q0 99 73.5 171t174.5 72t173 -72.5t72 -173.5q0 -102 -72.5 -173.5 t-176.5 -71.5q-99 0 -171.5 70.5t-72.5 177.5zM132 237q0 -68 44.5 -115t109.5 -47q66 0 111.5 47t45.5 115t-44.5 114.5t-110.5 46.5q-65 0 -110.5 -47t-45.5 -114z" />
<glyph unicode="&#xf7;" horiz-adv-x="567" d="M283 440q-23 0 -39.5 16.5t-16.5 40.5q0 22 16.5 38.5t39.5 16.5t39.5 -16.5t16.5 -39.5t-16.5 -39.5t-39.5 -16.5zM53 307v80h460v-80h-460zM227 198q0 22 16.5 38.5t39.5 16.5t39.5 -16.5t16.5 -39.5t-16.5 -39.5t-39.5 -16.5t-39.5 16.5t-16.5 40.5z" />
<glyph unicode="&#xf8;" horiz-adv-x="577" d="M41 46l46 46q-46 62 -46 143q0 103 72.5 175t174.5 72q77 0 142 -45l52 52l59 -56l-53 -53q46 -66 46 -144q0 -101 -72.5 -173t-173.5 -72q-77 0 -144 46l-46 -47zM151 157l218 219q-37 22 -81 22q-67 0 -111.5 -47t-44.5 -117q0 -39 19 -77zM207 99q39 -24 82 -24 q64 0 109 47t45 114q0 42 -19 80z" />
<glyph unicode="&#xf9;" horiz-adv-x="490" d="M276 512l-167 113l82 57l131 -132zM60 172v301h93v-282q0 -116 92 -116q46 0 69 27t23 89v282h93v-301q0 -78 -52.5 -129.5t-132.5 -51.5t-132.5 51.5t-52.5 129.5z" />
<glyph unicode="&#xfa;" horiz-adv-x="490" d="M241 512l-46 38l132 132l81 -57zM60 172v301h93v-282q0 -116 92 -116q46 0 69 27t23 89v282h93v-301q0 -78 -52.5 -129.5t-132.5 -51.5t-132.5 51.5t-52.5 129.5z" />
<glyph unicode="&#xfb;" horiz-adv-x="490" d="M163 512l-63 49l144 131l146 -131l-63 -49l-83 77zM60 172v301h93v-282q0 -116 92 -116q46 0 69 27t23 89v282h93v-301q0 -78 -52.5 -129.5t-132.5 -51.5t-132.5 51.5t-52.5 129.5z" />
<glyph unicode="&#xfc;" horiz-adv-x="490" d="M330 532q-25 0 -42 17t-17 42q0 24 17.5 41t41.5 17t41 -17t17 -41q0 -25 -17 -42t-41 -17zM161 532q-25 0 -42 17t-17 42q0 24 17.5 41t41.5 17t41 -17t17 -41q0 -25 -17 -42t-41 -17zM60 172v301h93v-282q0 -116 92 -116q46 0 69 27t23 89v282h93v-301 q0 -78 -52.5 -129.5t-132.5 -51.5t-132.5 51.5t-52.5 129.5z" />
<glyph unicode="&#xfd;" horiz-adv-x="391" d="M189 512l-46 38l132 132l81 -57zM149 0v203l-156 270h97l105 -184l106 184h97l-156 -270v-203h-93z" />
<glyph unicode="&#xfe;" horiz-adv-x="380" d="M63 0v473h90v-63h26q54 0 82.5 -6.5t51.5 -24.5q54 -41 54 -114q0 -66 -45 -106t-120 -40h-49v-119h-90zM153 195h42q87 0 87 71q0 69 -89 69h-40v-140z" />
<glyph unicode="&#xff;" horiz-adv-x="391" d="M280 532q-25 0 -42 17t-17 42q0 24 17.5 41t41.5 17t41 -17t17 -41q0 -25 -17 -42t-41 -17zM111 532q-25 0 -42 17t-17 42q0 24 17.5 41t41.5 17t41 -17t17 -41q0 -25 -17 -42t-41 -17zM149 0v203l-156 270h97l105 -184l106 184h97l-156 -270v-203h-93z" />
<glyph unicode="&#x152;" horiz-adv-x="1047" d="M47 330q0 146 101 248t246 102q72 0 127.5 -25t114.5 -84v96h359v-95h-258v-161h251v-95h-251v-221h258v-95h-359v92q-59 -57 -113 -81t-124 -24q-145 0 -248.5 100.5t-103.5 242.5zM148 337q0 -106 70.5 -180t170.5 -74q103 0 175.5 72.5t72.5 175.5q0 104 -72 178.5 t-173 74.5q-100 0 -172 -73t-72 -174z" />
<glyph unicode="&#x153;" horiz-adv-x="769" d="M41 234q0 103 72 175.5t175 72.5q87 0 155 -55v46h286v-82h-193v-100h188v-82h-188v-127h193v-82h-286v46q-70 -55 -156 -55q-103 0 -174.5 71t-71.5 172zM132 237q0 -68 45 -115.5t109 -47.5q66 0 111.5 47t45.5 115q0 69 -44.5 116t-110.5 47q-65 0 -110.5 -47 t-45.5 -115z" />
<glyph unicode="&#x178;" horiz-adv-x="531" d="M370 733q-26 0 -44 18.5t-18 44.5q0 25 18.5 43t43.5 18q26 0 44 -18.5t18 -43.5t-18 -43.5t-44 -18.5zM176 733q-26 0 -44 18.5t-18 44.5q0 25 18.5 43t43.5 18q26 0 44 -18.5t18 -43.5t-18 -43.5t-44 -18.5zM215 0v288l-218 379h116l152 -267l154 267h115l-218 -379 v-288h-101z" />
<glyph unicode="&#x2c6;" d="M164 486l-66 51l152 139l153 -139l-66 -51l-87 81z" />
<glyph unicode="&#x2dc;" d="M129 492l-56 48q26 38 37 50q29 31 73 31q35 0 78 -23q46 -23 58 -23q14 0 26 10t28 37l55 -46q-42 -83 -113 -83q-28 0 -79 25q-41 20 -58 20q-24 0 -49 -46z" />
<glyph unicode="&#x2000;" horiz-adv-x="458" />
<glyph unicode="&#x2001;" horiz-adv-x="917" />
<glyph unicode="&#x2002;" horiz-adv-x="458" />
<glyph unicode="&#x2003;" horiz-adv-x="917" />
<glyph unicode="&#x2004;" horiz-adv-x="305" />
<glyph unicode="&#x2005;" horiz-adv-x="229" />
<glyph unicode="&#x2006;" horiz-adv-x="152" />
<glyph unicode="&#x2007;" horiz-adv-x="152" />
<glyph unicode="&#x2008;" horiz-adv-x="114" />
<glyph unicode="&#x2009;" horiz-adv-x="183" />
<glyph unicode="&#x200a;" horiz-adv-x="50" />
<glyph unicode="&#x2010;" horiz-adv-x="193" d="M0 171v85h193v-85h-193z" />
<glyph unicode="&#x2011;" horiz-adv-x="193" d="M0 171v85h193v-85h-193z" />
<glyph unicode="&#x2012;" horiz-adv-x="193" d="M0 171v85h193v-85h-193z" />
<glyph unicode="&#x2013;" horiz-adv-x="567" d="M102 171v85h362v-85h-362z" />
<glyph unicode="&#x2014;" horiz-adv-x="577" d="M0 171v85h577v-85h-577z" />
<glyph unicode="&#x2018;" horiz-adv-x="289" d="M137 415l-87 34l123 247l66 -27z" />
<glyph unicode="&#x2019;" horiz-adv-x="289" d="M116 415l-66 27l102 254l87 -34z" />
<glyph unicode="&#x201a;" horiz-adv-x="289" d="M50 -129l102 254l87 -34l-123 -247z" />
<glyph unicode="&#x201c;" horiz-adv-x="461" d="M223 449l123 247l65 -27l-102 -254zM137 415l-87 34l123 247l66 -27z" />
<glyph unicode="&#x201d;" horiz-adv-x="461" d="M223 442l102 254l86 -34l-123 -247zM116 415l-66 27l102 254l87 -34z" />
<glyph unicode="&#x201e;" horiz-adv-x="461" d="M223 -129l102 254l86 -34l-123 -247zM50 -129l102 254l87 -34l-123 -247z" />
<glyph unicode="&#x2022;" horiz-adv-x="667" d="M335 200q-57 0 -98 41t-41 97q0 58 41 98.5t100 40.5q55 0 95.5 -41t40.5 -97q0 -58 -40.5 -98.5t-97.5 -40.5z" />
<glyph unicode="&#x2026;" horiz-adv-x="835" d="M636 48q0 25 18 42.5t42 17.5q25 0 43 -17.5t18 -42.5t-17.5 -43t-42.5 -18t-43 18t-18 43zM357 48q0 25 18 42.5t42 17.5q25 0 43 -17.5t18 -42.5t-17.5 -43t-42.5 -18q-26 0 -43.5 17.5t-17.5 43.5zM79 48q0 25 18 42.5t42 17.5q25 0 43 -17.5t18 -42.5t-17.5 -43 t-42.5 -18t-43 18t-18 43z" />
<glyph unicode="&#x202f;" horiz-adv-x="183" />
<glyph unicode="&#x2039;" horiz-adv-x="324" d="M206 1l-166 213l166 220l65 -48l-130 -172l130 -166z" />
<glyph unicode="&#x203a;" horiz-adv-x="324" d="M53 48l129 166l-129 172l65 48l166 -220l-166 -213z" />
<glyph unicode="&#x205f;" horiz-adv-x="229" />
<glyph unicode="&#x20ac;" horiz-adv-x="567" d="M-13 225l36 69h45q-2 24 -2 37q0 18 1 27h-80l36 69h57q33 113 126.5 183t211.5 70q90 0 174 -49l-44 -85q-62 39 -137 39t-137 -43.5t-89 -114.5h300l-36 -69h-280q-2 -11 -2 -28q0 -16 3 -36h246l-36 -69h-190q30 -66 90 -104.5t131 -38.5q75 0 137 42v-109 q-61 -28 -138 -28q-112 0 -200.5 64.5t-126.5 173.5h-96z" />
<glyph unicode="&#x2122;" horiz-adv-x="702" d="M259 287l82 415l126 -281l127 281l81 -415h-70l-36 207l-102 -214l-102 214l-35 -207h-71zM83 287v315h-84v65h237v-65h-84v-315h-69z" />
<glyph unicode="&#x25fc;" horiz-adv-x="475" d="M0 475h475v-475h-475v475z" />
</font>
</defs>
</svg>
